<svg width="32" height="32" viewBox="0 0 503 567" fill="none" xmlns="http://www.w3.org/2000/svg">
  <rect width="32" height="32" fill="#000000"/>
  <path fillRule="evenodd" clipRule="evenodd" d="M66.6332 107.982L66.6121 107.974C65.3142 107.499 64.0163 107.023 62.7184 106.548C64.0233 107.026 65.3283 107.504 66.6332 107.982Z" fill="white" transform="scale(0.064)"/>
  <path fillRule="evenodd" clipRule="evenodd" d="M0.479494 248.308C0.566746 273.359 0.654205 298.469 0 323.765C0.0494652 325.885 0.113419 327.957 0.176395 329.996C0.295169 333.844 0.410469 337.579 0.418542 341.314C0.431434 347.283 0.45237 353.252 0.473305 359.221C0.551096 381.4 0.628891 403.581 0.294057 425.755C0.203888 431.728 2.73512 434.706 7.97445 437.391C26.2186 446.742 44.3586 456.262 62.4227 465.895C124.362 498.922 186.277 531.985 248.104 565.184C252.584 567.59 255.95 567.635 260.355 565.14C300.837 542.213 341.417 519.43 382.008 496.66C420.479 475.078 458.96 453.508 497.548 432.096C501.644 429.824 503.005 427.261 503 423.008C502.897 327.36 502.902 231.712 502.908 136.063C502.909 122.581 502.91 109.099 502.91 95.617V95.5421C502.91 86.7405 502.91 86.7061 493.746 83.5076C448.269 67.6337 402.787 51.7711 357.304 35.9112C348.257 32.7565 339.208 29.6061 330.159 26.4557L330.149 26.452L330.138 26.4483L330.128 26.4446L330.096 26.4336C306.095 18.0774 282.094 9.7212 258.127 1.28593C253.512 -0.338267 249.419 -0.498938 244.707 1.23562C235.436 4.64906 226.077 7.86892 216.718 11.0889L216.716 11.0895C211.926 12.7376 207.136 14.3858 202.357 16.0599C185.118 22.0991 167.881 28.142 150.644 34.1848L150.55 34.2177L150.503 34.2342L150.484 34.2409L150.481 34.242C102.626 51.0186 54.7714 67.7952 6.88338 84.4943C2.16677 86.1389 0.328739 88.3506 0.352837 93.0803C0.557517 133.269 0.545743 173.46 0.43175 213.65C0.399 225.198 0.439225 236.747 0.479494 248.308Z" fill="white" transform="scale(0.064)"/>
</svg>

