<svg xmlns="http://www.w3.org/2000/svg" width="503" height="567" fill="none" viewBox="0 0 503 567"><mask id="a" fill="#fff"><path fill-rule="evenodd" d="m66.633 107.982-.02-.008-3.895-1.426z" clip-rule="evenodd"/><path fill-rule="evenodd" d="M.48 248.308c.087 25.051.174 50.161-.48 75.457.05 2.12.113 4.192.176 6.231.12 3.848.234 7.583.243 11.318.012 5.969.033 11.938.054 17.907.078 22.179.156 44.36-.179 66.534-.09 5.973 2.441 8.951 7.68 11.636 18.245 9.351 36.385 18.871 54.449 28.504 61.939 33.027 123.854 66.09 185.681 99.289 4.48 2.406 7.846 2.451 12.251-.044 40.482-22.927 81.062-45.71 121.653-68.48 38.471-21.582 76.952-43.152 115.54-64.564 4.096-2.272 5.457-4.835 5.452-9.088-.103-95.648-.098-191.296-.092-286.945l.002-40.446v-.075c0-8.802 0-8.836-9.164-12.034A458085 458085 0 0 0 357.304 35.91q-13.571-4.73-27.145-9.455l-.01-.004-.011-.004-.01-.003-.032-.011c-24.001-8.357-48.002-16.713-71.969-25.148-4.615-1.624-8.708-1.785-13.42-.05-9.271 3.413-18.63 6.633-27.989 9.853h-.002c-4.79 1.649-9.58 3.297-14.359 4.97q-25.858 9.06-51.713 18.126l-.094.033-.047.016-.019.007-.003.001C102.626 51.019 54.771 67.795 6.883 84.494 2.167 86.14.33 88.351.353 93.08c.205 40.189.193 80.38.079 120.57-.033 11.548.007 23.097.047 34.658m126.677-61.781c0-7.188 0-7.191 7.789-9.662 7.164-1.903 14.019-4.297 20.805-6.666 10.103-3.529 20.053-7.003 30.642-8.725-7.724 4.633-16.123 7.915-24.504 11.189q-1.783.695-3.561 1.395c-6.7 2.644-13.603 4.895-20.513 7.068-3.092.972-4.429 2.299-4.424 5.457.035 20.493-.065 40.988-.165 61.484-.216 44.101-.432 88.203.699 132.276 1.089 42.414 26.978 82.054 79.375 94.652 9.683 2.327 19.548 3.609 29.586 3.178 4.054-.176 5.618 1.039 5.591 4.861-.099 14.056-.101 28.112-.104 42.168v.007c-.001 7.923-.003 15.846-.022 23.769-.003 1.264-.171 2.527-.373 4.048-.105.791-.22 1.652-.325 2.619L14.614 431.374c.958-1.681 2.398-2.214 3.762-2.718.314-.116.625-.231.925-.359 5.75-2.439 11.507-4.868 17.263-7.296l.006-.003.007-.003.008-.003.01-.004.012-.005.01-.004.009-.004c12.78-5.392 25.56-10.784 38.277-16.296 3.51-1.522 5.25-.969 7.135 1.947 12.565 19.433 31.207 32.609 53.539 41.837 7.595 3.138 15.25 6.157 22.906 9.176l.013.006.008.003c3.321 1.31 6.643 2.62 9.96 3.94l.043.017.046.019.083.034.085.036.004.002c.809.339 1.663.698 3.027-.223a484 484 0 0 0-3.71-3.248l-.001-.002c-3.881-3.376-7.733-6.728-11.229-10.397-16.956-17.799-26.08-38.462-28.842-61.703-.715-6.021-.78-11.999-.784-18.003-.025-45.141-.026-90.281-.027-135.422v-.361q0-22.895-.002-45.79zm201.979 263.315c-21.516 13.005-44.628 22.663-70.185 27.078-3.251.561-4.897 1.457-4.877 4.846.089 15.556.084 31.112.079 46.668-.003 8.366-.006 16.732.006 25.098v.066l-.001.047-.004.206-.014.372c-.055 1.376-.114 2.852 1.75 3.999q.901-.476 1.829-.958l.001-.001c1.332-.694 2.694-1.403 4.028-2.152 9.628-5.402 19.252-10.811 28.875-16.219l.263-.148q10.236-5.755 20.476-11.505l48.129-27.025 3.159-1.773c42.286-23.744 84.573-47.487 126.851-71.241 4.627-2.6 5.418-4.994-.228-7.868-.155-.078-19.333-6.616-39.998-13.661l-.039-.013-.013-.004-.091-.031-.105-.036-.012-.004c-24.098-8.215-50.117-17.085-50.297-17.188-1.487-.847-3.081-1.755-5.668-1.475-15.328 29.734-31.698 44.414-63.914 62.922M66.272 117.489c.021-2.506-.9-3.709-3.493-4.634-11.335-4.043-22.635-8.167-33.936-12.29l-.006-.003-.005-.001q-7.561-2.762-15.127-5.512c-.21-.076-.419-.163-.63-.251-1.125-.468-2.32-.965-4.01-.007v91.764c-.005 4.74.02 82.777.023 87.627.002 5.847-.028 14.661-.06 24.112-.05 14.633-.105 30.795-.053 39.848.145 11.922.126 23.846.107 35.77-.01 6.441-.02 12.883-.005 19.324.024 10.23.185 20.459.66 31.269 1.298.805 2.412.259 3.472-.26h.001c.233-.114.463-.227.692-.323a9420 9420 0 0 0 20.062-8.529l.018-.007.02-.009c12.275-5.229 24.55-10.458 36.872-15.595 4.266-1.778 4.945-3.822 3.303-7.745-4.91-11.731-7.387-23.888-7.83-36.51-.287-8.173-.323-16.342-.36-24.511v-.003c-.02-4.618-.04-9.236-.106-13.854-.1-15.276.116-95.519.265-150.524.06-22.505.11-40.785.121-48.661v-.002zM397.66 376.586c5.469-16.882 5.974-18.519 8.132-64.153-.095-31.311-.143-152.338-.121-183.649-.012-2.502.565-4.34 3.409-5.34 16.689-5.878 33.37-11.775 50.052-17.671l.016-.006.032-.011.022-.008.021-.008.022-.007.018-.007.018-.006.017-.006.018-.006.018-.007q16.002-5.658 32.007-11.308c.405-.143.853-.185 1.298-.227.206-.02.411-.038.61-.068 1.298 1.123 1.182 2.445 1.071 3.71-.031.353-.061.701-.061 1.04-.056 31.458-.02 125.687.006 195.557v.099c.012 30.76.022 56.788.021 70.642v.496q0 21.582-.004 43.165c0 .819-.077 1.638-.155 2.457l-.023.248-.025.267q-.028.314-.052.626c-.434.687-.933 1.219-3.771.687-3.16-1.275-27.054-9.552-49.929-17.203l-.004-.001c-20.434-6.834-39.932-13.356-42.663-14.628-1.979-.922-1.591-1.591-.897-2.789.296-.511.649-1.119.897-1.885m-200.514-25.631-.005-1.804c-.02-5.553-.017-11.106-.014-16.659q.003-3.409.003-6.818c-.001-11.196-.005-22.354-.008-33.484v-.08c-.013-43.9-.027-87.342.119-130.783.015-4.396-1.689-6.256-6.002-7.823-41.464-15.064-82.88-30.236-124.297-45.409l-.062-.022-.062-.023-.061-.023-.125-.045-.02-.008-3.895-1.426q-13.701-5.02-27.404-10.038c-4.553-1.667-9.105-3.336-14.091-5.165l-.02-.008-5.305-1.945c77.604-27.563 154.375-54.3 231.264-80.658 4.838-1.659 9.111.221 9.111.221l148.387 51.63 18.102 6.299.749.26 62.28 21.67c-1.189 1.68-2.817 2.087-4.337 2.467-.511.128-1.01.252-1.477.422-9.931 3.602-19.872 7.183-29.813 10.765l-.027.009-.003.002-.003.001-.004.001-.003.001-.003.001-.004.002-.003.001-.003.001-.004.001-.003.001-.003.002-.003.001-.004.001-.003.001-.003.001-.004.002-.003.001c-14.302 5.152-28.605 10.304-42.879 15.521-3.484 1.273-6.472 1.396-9.979.075-6.484-2.446-13.011-4.797-19.538-7.148h-.001l-.002-.001c-5.532-1.993-11.063-3.985-16.568-6.035-2.665-.992-4.942-.98-7.6-.024-16.853 6.063-33.73 12.07-50.67 17.929-3.517 1.216-4.692 3.007-4.628 6.38.158 8.392.131 16.788.104 25.183v.004c-.01 3.196-.02 6.393-.02 9.588-.001 12.834.006 25.6.012 38.319v.719c.017 33.886.034 67.43-.071 100.974-.039 12.272-.204 14.825-.406 17.945-.049.755-.1 1.543-.152 2.509-.582 10.841-3.727 17.214-5.997 20.778-2.917 4.579-4.394 6.473-5.435 7.808-.275.352-.519.665-.751.978-15.891 21.427-42.926 34.4-70.83 38.906 5.744 8.208 13.265 12.973 22.583 15.568 11.547 3.215 23.076 2.136 34.409-.781 29.397-7.568 52.376-22.599 66.124-47.81 5.657-10.377 8.27-21.532 8.273-33.127l.008-23.203c.017-50.975.035-101.95-.107-152.925-.013-4.723 1.237-7.244 6.531-8.909 2.515-.792 4.948-1.763 7.384-2.736 1.718-.686 3.438-1.372 5.188-1.996 6.821-3.077 22.489-9.937 29.486-11.292-.752.385-3.579 2.047-6.354 3.679l-.008.004-.001.001-.007.004-.007.004-.002.001-.002.002-.007.004-.002.001-.001.001-.003.001c-2.628 1.546-5.2 3.058-5.91 3.427l-.005.003c-7.52 3.911-15.04 7.822-23.202 10.532-5.09 1.69-6.859 4.277-6.823 9.338.206 28.282.183 56.563.16 84.845q-.012 13.351-.014 26.703c.001 6.227-.009 12.363-.018 18.439-.02 13.165-.039 26.04.04 38.916.245 39.499-21.403 66.503-59.058 84.131-14.029 6.568-29.003 10.336-45.105 9.677-16.978-.694-29.726-7.917-39.108-20.297-5.785-7.635-9.644-16.086-11.588-25.233-.354-9.741-.365-13.904-.377-18.923" clip-rule="evenodd"/></mask><path fill="#fff" fill-rule="evenodd" d="m66.633 107.982-.02-.008-3.895-1.426z" clip-rule="evenodd"/><path fill="#fff" fill-rule="evenodd" d="M.48 248.308c.087 25.051.174 50.161-.48 75.457.05 2.12.113 4.192.176 6.231.12 3.848.234 7.583.243 11.318.012 5.969.033 11.938.054 17.907.078 22.179.156 44.36-.179 66.534-.09 5.973 2.441 8.951 7.68 11.636 18.245 9.351 36.385 18.871 54.449 28.504 61.939 33.027 123.854 66.09 185.681 99.289 4.48 2.406 7.846 2.451 12.251-.044 40.482-22.927 81.062-45.71 121.653-68.48 38.471-21.582 76.952-43.152 115.54-64.564 4.096-2.272 5.457-4.835 5.452-9.088-.103-95.648-.098-191.296-.092-286.945l.002-40.446v-.075c0-8.802 0-8.836-9.164-12.034A458085 458085 0 0 0 357.304 35.91q-13.571-4.73-27.145-9.455l-.01-.004-.011-.004-.01-.003-.032-.011c-24.001-8.357-48.002-16.713-71.969-25.148-4.615-1.624-8.708-1.785-13.42-.05-9.271 3.413-18.63 6.633-27.989 9.853h-.002c-4.79 1.649-9.58 3.297-14.359 4.97q-25.858 9.06-51.713 18.126l-.094.033-.047.016-.019.007-.003.001C102.626 51.019 54.771 67.795 6.883 84.494 2.167 86.14.33 88.351.353 93.08c.205 40.189.193 80.38.079 120.57-.033 11.548.007 23.097.047 34.658m126.677-61.781c0-7.188 0-7.191 7.789-9.662 7.164-1.903 14.019-4.297 20.805-6.666 10.103-3.529 20.053-7.003 30.642-8.725-7.724 4.633-16.123 7.915-24.504 11.189q-1.783.695-3.561 1.395c-6.7 2.644-13.603 4.895-20.513 7.068-3.092.972-4.429 2.299-4.424 5.457.035 20.493-.065 40.988-.165 61.484-.216 44.101-.432 88.203.699 132.276 1.089 42.414 26.978 82.054 79.375 94.652 9.683 2.327 19.548 3.609 29.586 3.178 4.054-.176 5.618 1.039 5.591 4.861-.099 14.056-.101 28.112-.104 42.168v.007c-.001 7.923-.003 15.846-.022 23.769-.003 1.264-.171 2.527-.373 4.048-.105.791-.22 1.652-.325 2.619L14.614 431.374c.958-1.681 2.398-2.214 3.762-2.718.314-.116.625-.231.925-.359 5.75-2.439 11.507-4.868 17.263-7.296l.006-.003.007-.003.008-.003.01-.004.012-.005.01-.004.009-.004c12.78-5.392 25.56-10.784 38.277-16.296 3.51-1.522 5.25-.969 7.135 1.947 12.565 19.433 31.207 32.609 53.539 41.837 7.595 3.138 15.25 6.157 22.906 9.176l.013.006.008.003c3.321 1.31 6.643 2.62 9.96 3.94l.043.017.046.019.083.034.085.036.004.002c.809.339 1.663.698 3.027-.223a484 484 0 0 0-3.71-3.248l-.001-.002c-3.881-3.376-7.733-6.728-11.229-10.397-16.956-17.799-26.08-38.462-28.842-61.703-.715-6.021-.78-11.999-.784-18.003-.025-45.141-.026-90.281-.027-135.422v-.361q0-22.895-.002-45.79zm201.979 263.315c-21.516 13.005-44.628 22.663-70.185 27.078-3.251.561-4.897 1.457-4.877 4.846.089 15.556.084 31.112.079 46.668-.003 8.366-.006 16.732.006 25.098v.066l-.001.047-.004.206-.014.372c-.055 1.376-.114 2.852 1.75 3.999q.901-.476 1.829-.958l.001-.001c1.332-.694 2.694-1.403 4.028-2.152 9.628-5.402 19.252-10.811 28.875-16.219l.263-.148q10.236-5.755 20.476-11.505l48.129-27.025 3.159-1.773c42.286-23.744 84.573-47.487 126.851-71.241 4.627-2.6 5.418-4.994-.228-7.868-.155-.078-19.333-6.616-39.998-13.661l-.039-.013-.013-.004-.091-.031-.105-.036-.012-.004c-24.098-8.215-50.117-17.085-50.297-17.188-1.487-.847-3.081-1.755-5.668-1.475-15.328 29.734-31.698 44.414-63.914 62.922M66.272 117.489c.021-2.506-.9-3.709-3.493-4.634-11.335-4.043-22.635-8.167-33.936-12.29l-.006-.003-.005-.001q-7.561-2.762-15.127-5.512c-.21-.076-.419-.163-.63-.251-1.125-.468-2.32-.965-4.01-.007v91.764c-.005 4.74.02 82.777.023 87.627.002 5.847-.028 14.661-.06 24.112-.05 14.633-.105 30.795-.053 39.848.145 11.922.126 23.846.107 35.77-.01 6.441-.02 12.883-.005 19.324.024 10.23.185 20.459.66 31.269 1.298.805 2.412.259 3.472-.26h.001c.233-.114.463-.227.692-.323a9420 9420 0 0 0 20.062-8.529l.018-.007.02-.009c12.275-5.229 24.55-10.458 36.872-15.595 4.266-1.778 4.945-3.822 3.303-7.745-4.91-11.731-7.387-23.888-7.83-36.51-.287-8.173-.323-16.342-.36-24.511v-.003c-.02-4.618-.04-9.236-.106-13.854-.1-15.276.116-95.519.265-150.524.06-22.505.11-40.785.121-48.661v-.002zM397.66 376.586c5.469-16.882 5.974-18.519 8.132-64.153-.095-31.311-.143-152.338-.121-183.649-.012-2.502.565-4.34 3.409-5.34 16.689-5.878 33.37-11.775 50.052-17.671l.016-.006.032-.011.022-.008.021-.008.022-.007.018-.007.018-.006.017-.006.018-.006.018-.007q16.002-5.658 32.007-11.308c.405-.143.853-.185 1.298-.227.206-.02.411-.038.61-.068 1.298 1.123 1.182 2.445 1.071 3.71-.031.353-.061.701-.061 1.04-.056 31.458-.02 125.687.006 195.557v.099c.012 30.76.022 56.788.021 70.642v.496q0 21.582-.004 43.165c0 .819-.077 1.638-.155 2.457l-.023.248-.025.267q-.028.314-.052.626c-.434.687-.933 1.219-3.771.687-3.16-1.275-27.054-9.552-49.929-17.203l-.004-.001c-20.434-6.834-39.932-13.356-42.663-14.628-1.979-.922-1.591-1.591-.897-2.789.296-.511.649-1.119.897-1.885m-200.514-25.631-.005-1.804c-.02-5.553-.017-11.106-.014-16.659q.003-3.409.003-6.818c-.001-11.196-.005-22.354-.008-33.484v-.08c-.013-43.9-.027-87.342.119-130.783.015-4.396-1.689-6.256-6.002-7.823-41.464-15.064-82.88-30.236-124.297-45.409l-.062-.022-.062-.023-.061-.023-.125-.045-.02-.008-3.895-1.426q-13.701-5.02-27.404-10.038c-4.553-1.667-9.105-3.336-14.091-5.165l-.02-.008-5.305-1.945c77.604-27.563 154.375-54.3 231.264-80.658 4.838-1.659 9.111.221 9.111.221l148.387 51.63 18.102 6.299.749.26 62.28 21.67c-1.189 1.68-2.817 2.087-4.337 2.467-.511.128-1.01.252-1.477.422-9.931 3.602-19.872 7.183-29.813 10.765l-.027.009-.003.002-.003.001-.004.001-.003.001-.003.001-.004.002-.003.001-.003.001-.004.001-.003.001-.003.002-.003.001-.004.001-.003.001-.003.001-.004.002-.003.001c-14.302 5.152-28.605 10.304-42.879 15.521-3.484 1.273-6.472 1.396-9.979.075-6.484-2.446-13.011-4.797-19.538-7.148h-.001l-.002-.001c-5.532-1.993-11.063-3.985-16.568-6.035-2.665-.992-4.942-.98-7.6-.024-16.853 6.063-33.73 12.07-50.67 17.929-3.517 1.216-4.692 3.007-4.628 6.38.158 8.392.131 16.788.104 25.183v.004c-.01 3.196-.02 6.393-.02 9.588-.001 12.834.006 25.6.012 38.319v.719c.017 33.886.034 67.43-.071 100.974-.039 12.272-.204 14.825-.406 17.945-.049.755-.1 1.543-.152 2.509-.582 10.841-3.727 17.214-5.997 20.778-2.917 4.579-4.394 6.473-5.435 7.808-.275.352-.519.665-.751.978-15.891 21.427-42.926 34.4-70.83 38.906 5.744 8.208 13.265 12.973 22.583 15.568 11.547 3.215 23.076 2.136 34.409-.781 29.397-7.568 52.376-22.599 66.124-47.81 5.657-10.377 8.27-21.532 8.273-33.127l.008-23.203c.017-50.975.035-101.95-.107-152.925-.013-4.723 1.237-7.244 6.531-8.909 2.515-.792 4.948-1.763 7.384-2.736 1.718-.686 3.438-1.372 5.188-1.996 6.821-3.077 22.489-9.937 29.486-11.292-.752.385-3.579 2.047-6.354 3.679l-.008.004-.001.001-.007.004-.007.004-.002.001-.002.002-.007.004-.002.001-.001.001-.003.001c-2.628 1.546-5.2 3.058-5.91 3.427l-.005.003c-7.52 3.911-15.04 7.822-23.202 10.532-5.09 1.69-6.859 4.277-6.823 9.338.206 28.282.183 56.563.16 84.845q-.012 13.351-.014 26.703c.001 6.227-.009 12.363-.018 18.439-.02 13.165-.039 26.04.04 38.916.245 39.499-21.403 66.503-59.058 84.131-14.029 6.568-29.003 10.336-45.105 9.677-16.978-.694-29.726-7.917-39.108-20.297-5.785-7.635-9.644-16.086-11.588-25.233-.354-9.741-.365-13.904-.377-18.923" clip-rule="evenodd"/><path fill="#000" d="m21.202 91.337.172-.47zm402.309-24.193-.165.472zM36.607 420.983l-.194-.461zm422.574-315.227.166.471zM150.503 34.234l-.165-.472zm-83.622 73.839-.172.469zm231.431 94.904h.5zM168.553 461.624l.191-.463h-.001zm-10.057-3.979-.184.465zm-121.88-36.666-.194-.461zm-.021.009.194.461zm422.608-315.24.166.471zm-.054.019-.167-.471zM33.982 415.386l.196.46zM66.82 108.05l-.172.469zM36.585 420.992l-.194-.461zm131.922 40.613-.187.464zM459.224 105.74l.167.472zm-160.912 97.175h.5zm0 .031h.5zM66.758 108.027l.172-.469zm-.125-.045-.172.469zm-.02-.008.171-.469-.344.938zm102.023 353.684-.193.462zM36.577 420.995l.195.461zm422.669-315.262-.166-.472zm-160.934 97.12h.5zm0 .031-.5.001zM36.57 420.998l.194.461zm261.742-218.176h.5zm0-.031h.5zm150.924 202.867.161-.473zm-.013-.004-.161.473zM298.312 202.729h.5zm0 .031h-.5zm150.82 202.863-.161.473zm-150.82-202.957h.5zm0 .032.5-.001zm150.715 202.889.161-.473zM298.312 202.604l.5-.001zm0 .031h-.5zm0-.094h.5zm0 .031-.5.001zm0-.094h.5zm0 .032h.5zM150.55 34.218l-.165-.472zm179.578-7.773-.165.472zm129.136 79.281.167.472zm-36.502-38.842-.164.472zm-124.45 135.563h.5zm31.826-175.999-.164.473zm58.041 102.935-.253-.431zm-89.867 73.032h.5zM404.66 60.585l.164-.472zm54.639 45.129-.166-.472zm-129.15-79.262-.165.472zm129.168 79.256-.167-.472zm-161.005 96.644h.5zm0 .032h-.5zm0-.064h.5zM14.614 431.374l-.235.442 233.038 124.27.236-.441.235-.441L14.849 430.933zm6.588-340.037.172-.47-5.304-1.945-.172.47-.172.47c1.83.67 3.593 1.317 5.304 1.945zm469.055 321.755.496-.063c-.09-.71-.466-1.781-.83-2.656a16 16 0 0 0-.538-1.174 5 5 0 0 0-.231-.406 2 2 0 0 0-.116-.159.7.7 0 0 0-.222-.182l-.219.449-.22.45c-.085-.042-.122-.096-.105-.075a1 1 0 0 1 .043.061q.07.108.182.322c.147.284.325.671.503 1.098.362.871.69 1.833.761 2.398zm-423.99-295.12.5.005.005-.483-.5-.005-.5-.004-.004.483zm419.524-29.158.164-.472-62.28-21.67-.164.472-.165.472 62.28 21.67zM9.066 94.79h-.5v.057h1v-.057zm493.844.751h-.5v.075h1v-.075zm-375.753 90.985h-.5v.02h1v-.02zm-98.32-85.965-.171.47.002.001.004.001.171-.469.172-.47-.003-.001-.003-.001zm5.165 314.815-.196-.46-.01.005-.01.004.196.46.196.46.01-.005.01-.004zm425.147-309.61.166.471.016-.005.016-.006-.166-.471-.167-.472-.015.006-.017.006zm.032-.011.166.471.011-.004.011-.004-.166-.471-.167-.471-.011.003-.011.004zM36.607 420.983l.194.46.006-.002.004-.002-.195-.46-.194-.461-.005.002-.004.002zm121.876 36.656-.184.466.007.002.006.003.184-.465.183-.466-.007-.002-.006-.003zm139.829-254.662-.5.001v.031l.5-.001h.5v-.031zM150.503 34.234l-.165-.472-.01.004-.009.003.165.472.166.472.009-.004q.006 0 .01-.003zM36.595 420.988l.194.461.007-.003.005-.003-.194-.46-.194-.461-.007.003-.006.002zm211.778 104.214h-.5v.007h1v-.007zM66.943 108.095l.172-.469-.03-.012-.032-.011-.172.47-.172.469.031.011.031.012zm-45.72-16.75.172-.47-.02-.007-.173.47-.172.469.01.003.01.004zm175.9 200.845h.5v-.08h-1v.081zm101.189-89.213h.5v-.031h-.5l-.5.001v.031zm0-.031h.5v-.031h-.5l-.5.001v.031zM168.553 461.624l.19-.463-.048-.019-.188.463-.187.464.043.017zm-.046-.019.188-.463-.047-.019-.184.465-.185.464.041.017zm290.642-355.838-.167-.471-.008.003-.008.002.167.472.166.471.009-.003.007-.003zM158.504 457.648l.183-.465-.006-.003-.002-.001-.183.466-.184.465.007.002.001.001zM66.819 108.05l-.172.469.031.012.031.011.172-.469.172-.47-.03-.011-.032-.012zM36.595 420.988l-.195-.461-.005.002-.004.002.194.461.195.461.005-.003.004-.001zM459.224 105.74l-.166-.471-.011.004-.011.004.167.471.166.471.011-.003.011-.004zm-392.405 2.31.172-.47-.03-.011-.031-.011-.172.469-.172.47.03.011.031.011zm-.186-.068.172-.47-.02-.007-.173.469-.172.469.021.008zm-.02-.008-.173.469.01.004.011.004.172-.469.172-.47-.01-.004-.01-.003zm.02.008-.172.469.062.023.063.023.172-.47.172-.469-.063-.023-.062-.023zm102.003 353.676.192-.461-.084-.036-.191.463-.19.462.08.034zm129.676-258.805-.5.001v.031l.5-.001h.5v-.031zm0 .031-.5.001v.031l.5-.001h.5v-.031zM168.636 461.658l-.193.462.084.035.194-.461.193-.461-.086-.036zM459.224 105.74l.167.472.011-.004.011-.004-.167-.471-.166-.472-.011.004-.011.004zM36.577 420.995l.195.461.003-.001.005-.002-.195-.461-.194-.461-.003.001-.005.003zm261.735-218.173-.5.001v.031l.5-.001h.5v-.031zM36.577 420.995l-.194-.46-.008.003q-.002 0 0 0l.195.46.194.461.008-.003q.002-.001 0 0zm261.735-218.173h.5v-.031h-.5l-.5.001v.031zM36.564 421.001l.194.461-.003.001.01-.004-.195-.461-.194-.46.003-.002-.01.004zm261.748-218.272h-.5v.031h1v-.031zm0 .031h-.5v.032l.5-.001h.5v-.031zm150.924 202.898-.161.473.019.007.019.006.162-.473.161-.473-.019-.007-.02-.006zm-.013-.004-.161.473.009.003.003.001h.001l.161-.473.161-.473-.01-.004h-.002l-.001-.001zM388.168 129.39l-.253-.431-.004.002-.004.002.254.431.253.431.004-.002.004-.002zm61.055 276.264.161-.474-.045-.015-.046-.016-.161.474-.161.473.045.015.046.016zM298.312 202.666l-.5.001v.031h.5l.5-.001v-.031zm0 .032h-.5v.031h1v-.032zm150.715 202.889-.161.473.052.018.053.018.161-.473.161-.474-.052-.018-.053-.017zM298.312 202.604h-.5v.031h1v-.032zm0 .031h-.5v.032l.5-.001h.5v-.031zm64.338 295.806-.245-.436-3.159 1.773.245.436.245.436 3.159-1.773zm-64.338-295.9h-.5v.032l.5-.001h.5v-.031zm0 .031-.5.001v.031h.5l.5-.001v-.031zm150.715 203.015.161-.473-.003-.002-.008-.002-.162.473-.161.473.003.001.009.003zM298.312 202.478l-.5.001v.031h1v-.032zm0 .032h-.5v.031h1v-.031zm124.45-135.626-.164.472.748.26.165-.472.164-.472-.374-.13-.375-.13zm-131.876 471.86-.245-.436-.131.074-.132.074.245.436.245.435.131-.073.132-.074zM36.626 420.975l-.195-.461-.003.002-.006.002.194.461.195.46.003-.001.006-.002zm413.538-318.507-.169-.471-.014.005-.013.005.169.47.17.471.013-.005.014-.005zm-323.005 130.23h.5v-.361h-1v.361zm171.153-30.251h-.5v.032l.5-.001h.5v-.031zm160.952-96.721-.167-.471-.009.003-.008.003.166.472.167.471.009-.003.009-.003zM150.503 34.234l.166.472.023-.008.024-.008-.166-.472-.165-.472-.024.008-.023.008zM33.963 415.393l.197.46.01-.004.008-.003-.196-.46-.196-.46-.01.004-.008.003zM330.129 26.445l.164-.473-.031-.01-.165.472-.164.472.015.005.016.006zm-73.855-17.49-.165.473 148.388 51.63.164-.473.164-.472-148.387-51.63zm237.855 402.309-.498-.047-.023.249.498.046.498.047.023-.248zm.159-46.118h-.5v.496h1v-.496zM298.312 202.447h.5v-.032h-1v.032zM150.55 34.217l.166.473.047-.017.047-.016-.166-.472-.165-.472-.047.016-.047.017zm272.212 32.667.164-.473-18.102-6.298-.164.472-.164.472 18.102 6.299zm-34.583 62.499-.253-.431-.005.003-.002.001.253.431.254.431.005-.003.002-.001zm71.12-23.669-.166-.472-.009.004-.009.003.167.471.166.472.009-.004.009-.003zm-.017.006-.167-.471-.009.003-.009.003.167.471.167.472.008-.003.009-.003zM330.128 26.445l-.165.472q.002 0 .005.002.003 0 .006.002l.164-.473.165-.472q-.002 0-.005-.002-.003 0-.006-.002zm-31.816 175.907h-.5v.032h.5l.5-.001v-.031zm0 .032h-.5v.031h1v-.032zm195.954 92.021-.5.001v.098h1v-.099zM388.179 129.383l.254.431.004-.003.002-.001-.253-.431-.253-.431-.005.003-.002.001zm71.12-23.669.167.471.009-.003.009-.003-.167-.471-.167-.472-.009.003-.008.003zm-129.15-79.262.164-.472-.005-.002-.005-.002-.165.472-.164.473.005.001.005.002zm58.046 102.922-.254-.431-.002.001-.005.003.253.431.254.431.002-.001.005-.003zm-89.883 72.915h-.5v.032l.5-.001h.5v-.032zm0 .031-.5.001v.031h1v-.032zm-44.154 351.325.5.005.001-.048-.5-.004-.5-.003-.001.044zm133.997-424.248.253.431h.001l.002-.001-.253-.431-.254-.431-.002.001zm71.18-23.696-.167-.471-.009.003-.009.003.167.472.167.471.008-.003.009-.003zM330.149 26.452l-.165.472.006.002.005.002.164-.472.165-.473-.005-.001-.006-.002zM0 323.765l-1-.026v.049zM.432 213.65l-1-.003zM.352 93.08l1-.005zm6.531-8.586.33.945zM202.357 16.06l.331.944zm42.35-14.824-.345-.939zm13.42.05.332-.943zm99.177 34.625-.329.944zm136.442 47.597-.329.944zm9.164 12.109h1zm.09 327.391-1 .001zm-5.452 9.088-.485-.874zm-115.54 64.564.489.872zm-121.653 68.48-.493-.87zm-12.251.044.474-.881zM62.423 465.895l-.47.882zM7.974 437.391l.457-.89zm-7.68-11.636-1-.015zm.125-84.441 1-.002zm196.712-15.64h-1zm.011 23.477 1-.003zm.382 20.727-.999.037.003.086.018.085zM247.162 8.734l-.324-.946zM15.898 89.392l-.335-.942-2.61.927 2.6.954zm19.416 7.118.344-.939zm155.926 56.994.342-.94zm6.002 7.823-1-.003zM298.3 163.97l1 .001v-.001zm-.084-34.775 1-.019zm4.628-6.38.326.945zm50.67-17.929-.339-.941zm7.6.024.349-.937zm36.109 13.184-.353.935v.001zm9.979-.075.344.939zm72.775-26.316.341.94h.001zm5.814-2.89.816.578.768-1.085-1.256-.437zM256.273 8.956l-.403.916.036.016.038.013zm41.968 295.027 1 .003zm195.787 108.423.845.535.134-.212.018-.249zm.255-3.598h-1zm-.023-309.96 1 .002v-.003zm-88.467 213.586.999.047.001-.025v-.025zm-8.132 64.153-.952-.308zm0 4.674-.423.906h.001zm-68.525 68.582-.498-.867-.01.005-.009.006zm-70.185 27.078.17.985zm-4.877 4.846 1-.006zm.085 71.766 1-.002zm1.731 4.69-.524.852.487.299.505-.267zm5.858-3.111-.489-.872zm49.614-27.872.489.872zM489.501 427.2l.49.872zm-.228-7.868.454-.891zM393.05 386.92l-.108-.994-.535.058-.246.478zM134.946 176.865l-.257-.966-.023.006-.023.007zm-7.789 9.682h-1zm.029 181.573-1 .001zm.784 18.003-.993.118zm28.842 61.703.724-.69zm14.94 13.647.56.829 1.068-.722-.965-.855zm-3.288.115.372-.929-.003-.001zm-32.887-13.125.382-.925zm-53.538-41.837.84-.543zm-7.136-1.947.397.917zM19.3 428.297l.39.921zm-4.687 3.077-.869-.495-.509.894.908.484zm233.039 124.271-.471.882 1.305.696.16-1.47zm.698-6.667 1 .002zm.126-65.944-1-.007zm-5.591-4.861.043.999zm-29.586-3.178-.234.972h.001zm-79.375-94.652 1-.026zm-.534-193.76-1 .001zm4.424-5.457.3.953zm20.513-7.068.367.931zm28.065-12.584.515.858-.675-1.845zM493.25 94.098l.655-.756-.346-.3-.453.067zm-1.908.295-.332-.943h-.001zm-82.261 29.051.332.943zm-3.409 5.34 1 .001v-.006zM9.088 274.182l1-.001zm-.113 63.96-1 .006v.006zm56.906-20.983-1 .007v.008zM9.064 186.555l1 .001v-.001zm57.208-69.066 1 .009zm-3.493-4.634.336-.942zM13.705 95.049l.341-.94zm-4.64-.258-.492-.87-.507.288v.582zm.671 329.714-.999.044.023.528.45.278zm4.166-.583.39.921v-.001zm56.972-24.14-.384-.923zm3.303-7.745.922-.386zm-7.83-36.51 1-.035zm-57.27 37.709 1-.003zM352.36 264.245h-1zm-.146-111.548-1 .007v.001zm6.823-9.338.315.949zm35.511-17.664.456.89-.646-1.872zm-42.058 16.024.3.954zm-6.531 8.909-1 .002v.001zm.099 176.128h-1zm-8.273 33.127.878.478zm-66.124 47.81.249.968zm-34.409.781-.268.963zm-22.583-15.568-.16-.987-1.574.254.914 1.307zM285.5 354l-.803-.596zm-76.388 41.111-.797.604zm39.108 20.297-.04.999zm45.105-9.677.424.906zm59.058-84.131-1 .006zM.479 248.308l-1 .004zm-.303 81.688 1-.03zm.297 29.225 1-.004zm502.435-223.158h1zm.002-40.52h-1zm-172.814-69.11.329-.944zM216.718 11.09l-.325-.946-.002.001zM150.484 34.24l.331.944zm46.644 298.251 1 .001zm-.005-40.382h-1v.001zM66.943 108.095l.344-.939zm-45.74-16.758.344-.939zm277.117 63.045 1 .003v-.003zm-.008 48.626h-1v.001zM423.511 67.144l.328-.944zm57.943 24.137.243.97zm-31.373 11.217.339.941.003-.001zm-72.399 8.447.342-.94-.004-.001zm116.446 300.319-.995-.094v.001zm-3.871 1.828-.374.927.092.037.098.019zm4.03-47.946h-1zm-95.569 23.249-.496.869h.001zM362.65 498.441l.489.872h.001zm-72.027 40.451-.49-.872zm-32.903 18.371-.462-.887-.026.014-.026.016zm-3.58-3.04-.999-.04zm.013-25.789 1 .001zM127.157 186.527h1zm28.594-16.328.33.944zm6.138 2.464.363.931zm-28.663 75.404 1 .005zm115.147 277.142h1zm-.395 27.817.991.132zM18.376 428.656l.347.938zm18.231-7.673-.39-.921zm121.876 36.656-.367.931zm10.242 4.057-.395.918.008.004zm-.684-3.473-.657.755.006.004zm-40.882-225.525h-1zm332.022-126.942.332.943h.001zm33.459-11.59.094.996zm1.681 3.643.996.087zM13.074 94.798l-.384.923zm15.77 5.767-.344.939zm37.423 17.407 1 .011v-.002zm286.108 119.57 1 .001zm-.032 45.142 1 .001zm-6.276 20.869h-1zm18.996-166.566.335.942.039-.014.037-.017zm17.177-4.16.461.887zM9.028 298.294l-1-.003zm57.24-180.32-1-.011v.009zM34.002 415.377l-.392-.92h-.001zm-20.793 8.868.44.899.012-.006zm-4.127-50.333-1-.002zM150.503 34.234l-.33-.944h-.001zm66.213-23.144.326.945h.002zM21.223 91.345l-.345.939zm45.658 16.728-.344.939zM197.123 292.19h1zM298.32 154.378l-1-.003v.003zm79.364-43.432-.343.939.007.003zm-85.998 234.268.843.537zm-123.133 116.41.383-.924-.005-.002zm-10.057-3.979-.367.93.003.001zm-121.88-36.666-.387-.922-.002.001zm-.021.009.389.921zm211.778 104.214h-1zm210.83-419.454-.333-.943zm-.054.019-.333-.943h-.001zm-430.312-5.205-.345.939.002.001zM13.21 424.245l-.44-.898-.012.006zm20.772-8.859-.393-.92zm32.006-84.373h1v-.005zm316.257-198.189-.461-.887zM66.819 108.05l.344-.939zM36.585 420.992l.388.922.002-.001zm121.919 36.656.367-.931-.004-.001zm10.003 3.957.378-.926-.006-.002zm.214.089.395-.919-.009-.004zm290.412-355.921.333.942h.001zm.091-.033.333.943h.001zm-430.392-5.179.345-.94h-.002zm421.259 1.933.342.94.002-.001zm-72.406 8.452.339-.941-.004-.001zm-310.927-2.919-.344.939zm-.125-.045-.344.939zm-3.915-1.434-.344.939zm105.918 355.11.386-.922-.003-.002zM36.577 420.995l-.387-.922-.007.003zm422.669-315.262-.333-.943zm-9.148-3.241-.342-.94-.003.001zm-.004.001.344.939h.001zM150.481 34.242l-.33-.944h-.001zM36.57 420.998l.38.925.008-.003.006-.003zm351.6-291.61-.506-.862-.01.006zm-28.295 9.595-.371-.928zm80.453 256.906-.324.946.007.003zM36.564 421.001l-.38-.925-.009.004zM388.168 129.39l.507.862.01-.006zm52.156 266.498.324-.946-.006-.002zm8.912 9.77.323-.947-.005-.001zm-61.075-276.264-.507-.862-.004.002zm8.603 249.077-.865-.501zm52.511 27.2-.323.947zm-.052-.017-.323.946.005.002zm.888-303.167.341.94.002-.001zm-.979 303.136-.322.946zm.982-303.137-.342-.94-.001.001zm-90.623 397.728-.489-.872zm89.536-94.627-.326.945.004.001zm-.012-.004.326-.946-.003-.001zm1.116-303.103.341.94.002-.001zM297.683 324.436l.999.054zm152.454-221.959-.339-.941-.002.001zm-.003.002-.342-.94h-.002zM150.55 34.218l-.33-.944zm179.578-7.773.329-.945zM127.159 232.337h1zm40.883 225.888.657-.755-.006-.004zm-131.416-37.25.387.922.001-.001zm351.546-291.588.507.863.002-.002zm-.013.008.501.865.01-.005zM494.08 411.779l.996.09zM290.886 538.744l.49.872zm159.278-436.276.339.94zm-27.402-35.584-.329.944zM297.835 321.927l-.998-.064zM66.145 166.635l1 .003zm-.157 164.381h-1v.004zm-32.024 84.377.392.92h.001zm116.68-381.208.331.944zm237.514 95.211-.501-.866-.005.003zm.021-.013-.508-.861zM254.154 553.851l-1-.028zm3.565 3.413.462.887.027-.014.026-.016zM404.66 60.585l-.329.945zm89.606 233.919h-1zm.021 71.138h1zm-.182 45.87-.996-.094v.001zM330.149 26.452l-.33.944h.001zm58.037 102.927.508.861.008-.004.008-.005zM254.158 553.645l1 .011v-.002zm240.108-259.24h1zM330.159 26.455l-.329.945h.001zm-76 527.143 1 .009v-.002zm205.176-447.897-.334-.942zM197.147 350.955l1-.003zm101.165-148.666h1v-.001zm-12.061 150.733.788.615zm101.944-223.648.504.863.003-.001zm-.008.004-.504-.863-.01.006-.01.006zm-.032.019-.506-.862h-.001zM.432 213.65l1 .002c.114-40.19.126-80.384-.08-120.577l-1 .005-1 .005c.206 40.186.194 80.374.08 120.562zM.352 93.08l1-.005c-.01-2.239.42-3.723 1.279-4.832.873-1.127 2.298-2.008 4.582-2.804l-.33-.945-.329-.944c-2.433.848-4.285 1.895-5.504 3.468-1.233 1.59-1.71 3.576-1.697 6.067zM244.708 1.236l.345.938c4.469-1.645 8.321-1.501 12.743.055l.332-.943.332-.943c-4.808-1.693-9.142-1.87-14.097-.046zM357.304 35.91l-.329.944a471227 471227 0 0 1 136.442 47.597l.329-.944.33-.944a458091 458091 0 0 0-136.443-47.597zM503 423.008l-1 .001c.002 2.023-.321 3.531-1.051 4.781-.732 1.251-1.934 2.349-3.886 3.432l.485.874.486.875c2.143-1.19 3.669-2.509 4.641-4.171s1.328-3.562 1.325-5.793zm-5.452 9.088-.485-.874c-38.59 21.413-77.073 42.984-115.544 64.566l.489.872.489.872c38.472-21.582 76.95-43.151 115.537-64.561zm-115.54 64.564-.489-.872c-40.591 22.77-81.173 45.554-121.657 68.482l.493.87.493.87c40.479-22.925 81.058-45.707 121.649-68.478zm-121.653 68.48-.493-.87c-2.105 1.192-3.877 1.73-5.604 1.73-1.731 0-3.527-.541-5.68-1.697l-.474.881-.473.881c2.327 1.25 4.454 1.935 6.627 1.935 2.176 0 4.29-.687 6.59-1.99zm-12.251.044.474-.881c-61.829-33.199-123.746-66.263-185.685-99.291l-.47.883-.47.882c61.938 33.027 123.853 66.09 185.678 99.288zM62.423 465.895l.47-.883c-18.068-9.634-36.213-19.157-54.462-28.511l-.457.89-.456.89c18.239 9.348 36.374 18.866 54.434 28.496zM7.974 437.391l.456-.89c-2.557-1.31-4.333-2.635-5.475-4.268-1.126-1.612-1.704-3.628-1.661-6.463l-1-.015-1-.015c-.047 3.138.596 5.597 2.022 7.639 1.412 2.02 3.52 3.527 6.202 4.902zM247.162 8.734l-.324-.946C169.945 34.148 93.171 60.885 15.563 88.45l.335.942.335.942C93.833 62.773 170.6 36.037 247.486 9.68zm-55.922 144.77-.341.94c2.101.763 3.393 1.542 4.182 2.534.77.966 1.168 2.274 1.161 4.346l1 .003 1 .004c.007-2.324-.439-4.145-1.596-5.599-1.136-1.428-2.852-2.364-5.064-3.168zm106.976-24.309 1-.019c-.03-1.577.234-2.623.786-3.401.556-.782 1.508-1.441 3.168-2.015l-.326-.945-.327-.945c-1.857.642-3.25 1.487-4.145 2.747-.899 1.265-1.19 2.801-1.156 4.597zm4.628-6.38.326.945c16.946-5.86 33.828-11.869 50.682-17.933l-.338-.941-.339-.941c-16.85 6.062-33.723 12.068-50.658 17.925zm50.67-17.929.338.941c2.441-.878 4.476-.887 6.913.02l.349-.937.349-.937c-2.892-1.077-5.413-1.062-8.288-.028zm43.709 13.208-.353.936c3.758 1.415 6.994 1.273 10.676-.072l-.344-.939-.343-.94c-3.287 1.201-6.026 1.306-9.284.079zm8.57 194.339-.999-.047c-1.08 22.833-1.744 34.602-2.817 42.775-1.067 8.126-2.535 12.681-5.268 21.117l.952.308.951.308c2.737-8.446 4.256-13.151 5.348-21.473 1.087-8.274 1.754-20.14 2.832-42.941zm-76.657 137.409-.517-.856c-21.432 12.954-44.427 22.559-69.839 26.948l.171.986.17.985c25.703-4.44 48.931-14.151 70.532-27.207zm-70.185 27.078-.171-.986c-1.634.282-3.111.679-4.155 1.598-1.113.979-1.562 2.384-1.551 4.24l1-.006 1-.006c-.009-1.533.355-2.271.873-2.727.586-.517 1.557-.849 3.174-1.128zm230.55-49.72.49.872c1.192-.67 2.198-1.359 2.927-2.086.724-.723 1.266-1.575 1.32-2.562.056-1.012-.412-1.919-1.178-2.711-.758-.783-1.878-1.531-3.333-2.272l-.454.891-.453.892c1.367.696 2.266 1.325 2.803 1.88.529.546.633.939.618 1.21-.016.295-.187.709-.736 1.256-.544.543-1.372 1.128-2.494 1.758zm-96.451-40.28-.889-.458c-7.625 14.792-15.489 25.8-25.43 35.41-9.95 9.617-22.016 17.866-38.093 27.103l.498.867.498.867c16.139-9.272 28.366-17.617 38.487-27.399 10.129-9.791 18.115-20.989 25.818-35.931zm-265.864-18.8-1 .001c.004 6.004.069 12.034.791 18.12l.993-.118.993-.118c-.707-5.957-.773-11.882-.777-17.885zm.784 18.003-.993.118c2.786 23.444 11.998 44.312 29.111 62.274l.724-.689.724-.69c-16.8-17.634-25.836-38.094-28.573-61.131zm7.607 62.34.382-.925c-22.204-9.175-40.657-22.24-53.08-41.455l-.84.543-.84.543c12.705 19.651 31.535 32.937 53.997 42.218zm-53.538-41.837.84-.543c-.987-1.526-2.065-2.645-3.528-3.058-1.449-.408-3.03-.051-4.846.736l.398.918.397.917c1.694-.734 2.739-.862 3.509-.646.755.213 1.49.828 2.39 2.219zm166.438 76.408 1 .007c.014-2.004-.379-3.647-1.618-4.699-1.201-1.02-2.945-1.258-5.016-1.168l.043.999.043.999c1.983-.086 3.048.196 3.636.695.55.467.925 1.342.912 3.16zm-5.591-4.861-.043-.999c-9.924.426-19.695-.841-29.309-3.152l-.234.973-.233.972c9.75 2.343 19.711 3.641 29.862 3.205zm-29.586-3.178.234-.973c-51.932-12.485-77.532-51.717-78.609-93.705l-1 .026-.999.026c1.099 42.84 27.278 82.889 80.14 95.598zm-79.909-288.412 1-.002c-.002-1.439.3-2.295.813-2.899.536-.632 1.425-1.135 2.911-1.603l-.3-.953-.299-.954c-1.607.504-2.933 1.151-3.836 2.215-.927 1.092-1.291 2.478-1.289 4.197zm4.424-5.457.3.953c6.914-2.173 13.845-4.433 20.58-7.09l-.367-.931-.367-.93c-6.665 2.63-13.539 4.872-20.446 7.044zm271.266-57.682-.332-.944c-1.594.561-2.674 1.406-3.318 2.565-.623 1.124-.765 2.417-.759 3.724l1-.005 1-.005c-.006-1.195.135-2.071.508-2.743.352-.635.983-1.209 2.233-1.649zm-342.81-5.955 1 .009c.013-1.371-.232-2.549-.968-3.522-.724-.957-1.817-1.574-3.188-2.063l-.336.942-.336.942c1.221.436 1.885.883 2.265 1.385.368.486.574 1.163.564 2.299zm4.603 282.293.385.923c2.193-.914 3.753-2.005 4.408-3.614.655-1.61.276-3.425-.568-5.44l-.922.386-.923.386c.799 1.909.901 3.076.56 3.914s-1.252 1.658-3.324 2.522zm3.303-7.745.922-.386c-4.859-11.611-7.313-23.648-7.753-36.159l-1 .035-.999.036c.448 12.732 2.948 25.009 7.907 36.86zm-65.1 1.199-1 .002c.024 10.239.185 20.482.66 31.311l1-.044.998-.044c-.473-10.792-.634-21.007-.658-31.228zm343.138-240.539 1-.007c-.017-2.424.401-4.093 1.301-5.341.901-1.251 2.392-2.229 4.837-3.041l-.315-.949-.315-.949c-2.645.878-4.583 2.039-5.83 3.769-1.248 1.733-1.696 3.888-1.678 6.525zm.276-10.978-.3-.954c-2.749.864-4.63 2.006-5.782 3.699-1.145 1.681-1.456 3.742-1.449 6.166l1-.002 1-.003c-.006-2.298.301-3.86 1.102-5.036.793-1.164 2.184-2.116 4.729-2.916zm-6.432 185.037h-1c-.003 11.439-2.579 22.429-8.151 32.648l.878.479.878.478c5.743-10.533 8.392-21.855 8.395-33.605zm-8.273 33.127-.878-.479c-13.584 24.911-36.296 39.804-65.495 47.32l.249.969.249.968c29.596-7.618 52.841-22.788 66.753-48.3zm-66.124 47.81-.249-.969c-11.237 2.892-22.574 3.938-33.891.787l-.269.963-.268.963c11.777 3.279 23.497 2.166 34.926-.776zm-34.409.781.269-.963c-9.127-2.542-16.439-7.185-22.033-15.178l-.819.573-.82.574c5.895 8.422 13.624 13.308 23.135 15.957zm-22.583-15.568.159.987c28.072-4.533 55.381-17.598 71.474-39.297L285.5 354l-.803-.596c-15.689 21.155-42.45 34.036-70.187 38.515zm-17.146-23.028-.978.208c1.974 9.292 5.896 17.878 11.769 25.629l.797-.604.797-.604c-5.697-7.519-9.494-15.835-11.406-24.836zm11.588 25.233-.797.604c9.557 12.611 22.579 19.985 39.865 20.692l.04-.999.041-.999c-16.67-.682-29.145-7.753-38.352-19.902zm39.108 20.297-.04.999c16.29.667 31.423-3.148 45.569-9.77l-.424-.906-.424-.905c-13.912 6.512-28.727 10.234-44.64 9.583zm45.105-9.677.424.906c18.934-8.864 33.913-20.117 44.127-34.182 10.222-14.077 15.631-30.915 15.507-50.862l-1 .007-1 .006c.121 19.553-5.172 35.967-15.126 49.674-9.962 13.718-24.635 24.781-43.356 33.546zM.479 248.308l-1 .004c.088 25.053.175 50.148-.479 75.427l1 .026 1 .026c.654-25.314.567-50.438.48-75.486zM0 323.765l-1 .023c.05 2.125.114 4.2.177 6.239l1-.031.999-.03c-.063-2.041-.127-4.109-.176-6.224zm.176 6.231-1 .031c.12 3.85.235 7.571.243 11.289l1-.002 1-.002c-.009-3.752-.124-7.502-.243-11.346zm.243 11.318-1 .002c.012 5.97.033 11.939.054 17.908l1-.003 1-.004c-.02-5.969-.042-11.937-.054-17.905zm.054 17.907-1 .003c.078 22.181.156 44.352-.179 66.516l1 .015 1 .015c.335-22.185.257-44.375.18-66.553zM503 423.008l1-.001c-.103-95.648-.098-191.295-.092-286.944h-2c-.006 95.649-.011 191.297.092 286.946zm-.092-286.945h1l.002-40.446h-2l-.002 40.446zm.002-40.446h1v-.075h-2v.075zm0-.075h1c0-2.177.002-3.895-.149-5.254-.153-1.377-.472-2.51-1.2-3.47-.719-.947-1.754-1.61-3.1-2.227-1.342-.615-3.112-1.234-5.385-2.028l-.33.945-.329.944c2.308.805 3.974 1.39 5.211 1.957 1.231.564 1.914 1.058 2.34 1.62.418.55.671 1.275.805 2.48.136 1.223.137 2.81.137 5.033zM330.096 26.434l.329-.945C306.424 17.133 282.424 8.777 258.459.343l-.332.943-.332.943c23.969 8.436 47.972 16.793 71.972 25.149zM244.707 1.236l-.345-.939c-9.26 3.41-18.609 6.626-27.969 9.846l.325.946.326.945c9.357-3.219 18.725-6.442 28.009-9.86zM.432 213.65l-1-.003c-.033 11.552.007 23.104.047 34.665l1-.004 1-.003c-.04-11.562-.08-23.108-.047-34.653zm196.696 118.842 1 .001.003-6.819h-2l-.003 6.818zm-.005-40.382h1c-.013-43.9-.027-87.34.119-130.779l-1-.004-1-.003c-.146 43.443-.132 86.887-.119 130.786zm-5.883-138.606.342-.94c-41.463-15.063-82.878-30.235-124.295-45.408l-.344.939-.344.939c41.416 15.173 82.834 30.345 124.3 45.41zm5.902 195.647 1-.003c-.02-5.551-.017-11.102-.014-16.655l-1-.001h-1c-.003 5.552-.006 11.108.014 16.663zM298.32 154.382l-1-.003c-.01 3.196-.02 6.394-.02 9.591h2c0-3.194.01-6.388.02-9.585zm-.008 48.626-1 .001c.017 33.886.034 67.428-.071 100.97l1 .003 1 .003c.105-33.546.088-67.092.071-100.977zM423.511 67.144l-.329.945 62.28 21.67.329-.945.328-.945-62.28-21.67zm62.28 21.67-.817-.578c-.952 1.346-2.224 1.69-3.763 2.075l.243.97.243.97c1.502-.376 3.485-.846 4.91-2.86zm-4.337 2.467-.243-.97c-.501.125-1.051.262-1.575.452l.341.94.342.94c.409-.149.856-.262 1.378-.392zm-31.373 11.217-.339-.941c-14.302 5.152-28.607 10.305-42.883 15.523l.343.939.344.939c14.271-5.215 28.571-10.367 42.874-15.519zm-72.399 8.447.338-.941c-5.531-1.993-11.058-3.984-16.557-6.031l-.349.937-.349.937c5.511 2.052 11.047 4.046 16.578 6.039zm116.346 301.46-.845-.534c-.167.263-.229.32-.413.373-.3.085-.941.125-2.329-.135l-.184.983-.184.983c1.449.272 2.477.312 3.245.092.884-.252 1.288-.804 1.555-1.227zm-88.235-99.972 1-.003c-.095-31.309-.143-152.334-.121-183.645l-1-.001h-1c-.022 31.311.026 152.339.121 183.652zm88.49 96.374h-1c0 .764-.072 1.536-.15 2.363l.995.094.996.095c.076-.812.159-1.678.159-2.552zM393.05 386.92l.108.995c2.249-.244 3.601.515 5.064 1.349l.496-.869.495-.869c-1.51-.86-3.346-1.917-6.271-1.6zm96.451 40.28-.49-.872c-42.278 23.754-84.564 47.497-126.851 71.241l.49.872.49.872c42.286-23.744 84.573-47.487 126.851-71.241zM290.623 538.892l-.49-.872a42750 42750 0 0 1-28.874 16.219l.489.872.49.872q14.441-8.105 28.875-16.22zm-28.875 16.219-.489-.872c-1.319.74-2.667 1.442-4.001 2.137l.462.887.462.887c1.33-.693 2.705-1.409 4.056-2.167zm-5.858 3.111.524-.852c-.742-.456-1.029-.922-1.163-1.357-.153-.493-.14-1.033-.111-1.75l-1-.04-.999-.04c-.026.659-.071 1.545.199 2.42.288.934.903 1.78 2.026 2.471zm-1.731-4.69 1-.002c-.012-8.364-.009-16.729-.006-25.095l-1-.001h-1c-.003 8.366-.006 16.732.006 25.099zm-.006-25.098 1 .001c.005-15.556.01-31.115-.079-46.675l-1 .006-1 .006c.089 15.552.084 31.105.079 46.662zM127.157 186.527h1c0-1.821.002-3.101.115-4.079.111-.959.318-1.497.637-1.893.332-.412.88-.789 1.921-1.226 1.044-.439 2.453-.887 4.418-1.511l-.302-.953-.303-.953c-1.929.612-3.44 1.091-4.587 1.573-1.149.482-2.062 1.018-2.704 1.815-.654.811-.934 1.776-1.066 2.917-.13 1.121-.129 2.537-.129 4.31zm7.789-9.662.256.967c7.208-1.914 14.098-4.321 20.879-6.689l-.33-.944-.33-.945c-6.791 2.372-13.611 4.753-20.732 6.645zm20.805-6.666.33.944c10.116-3.533 19.984-6.977 30.473-8.681l-.161-.988-.16-.987c-10.69 1.738-20.722 5.244-30.812 8.767zm30.642-8.725-.514-.857c-7.64 4.582-15.96 7.835-24.354 11.114l.364.932.363.931c8.369-3.269 16.847-6.579 24.656-11.262zm-24.504 11.189-.364-.932q-1.783.696-3.564 1.397l.367.93.367.931q1.775-.699 3.557-1.395zm-28.498 13.92-1 .001c.035 20.49-.065 40.982-.165 61.478l1 .005 1 .005c.1-20.495.2-40.994.165-61.491zm-.165 61.484-1-.005c-.216 44.099-.432 88.215.7 132.307l.999-.026 1-.026c-1.131-44.055-.915-88.141-.699-132.245zm115.147 277.142h-1c-.001 7.923-.003 15.845-.022 23.766l1 .003 1 .002c.019-7.924.021-15.848.022-23.771zm-.022 23.769-1-.003c-.003 1.187-.16 2.384-.364 3.919l.991.132.991.132c.2-1.507.379-2.837.382-4.178zm-.373 4.048-.991-.132c-.106.79-.222 1.662-.328 2.642l.994.109.994.108c.104-.953.217-1.803.322-2.595zM14.614 431.374l.87.495c.76-1.334 1.864-1.767 3.239-2.275l-.347-.938-.347-.938c-1.354.501-3.128 1.132-4.284 3.161zm3.762-2.718.347.938c.31-.115.643-.238.968-.376l-.39-.921-.39-.92a21 21 0 0 1-.882.341zm117.201 19.807-.381.924c7.603 3.142 15.266 6.164 22.92 9.183l.367-.931.366-.93c-7.656-3.019-15.304-6.036-22.89-9.171zm33.148 13.233-.387.922c.384.161.963.414 1.658.438.735.026 1.494-.199 2.316-.754l-.56-.829-.56-.829c-.541.366-.891.422-1.126.414-.276-.01-.529-.106-.954-.284zm-.684-3.473.656-.754c-3.887-3.382-7.703-6.703-11.161-10.333l-.724.69-.724.689c3.533 3.71 7.422 7.092 11.296 10.463zm-40.855-90.103h1c-.025-45.141-.026-90.281-.027-135.422h-2c.001 45.14.002 90.281.027 135.423zm-.029-181.573h1v-.02h-2v.02zm364.185-92.154.333.943c.268-.094.588-.13 1.059-.174l-.094-.996-.094-.995c-.419.04-.995.088-1.536.279zm1.298-.227.094.996c.201-.02.431-.04.661-.074l-.145-.99-.144-.99c-.17.026-.349.043-.56.063zm.61-.068-.654.757c.876.757.843 1.57.729 2.866l.996.088.996.087c.109-1.236.308-3.066-1.412-4.554zm1.071 3.71-.996-.087c-.03.344-.065.737-.065 1.128l1-.002h1c0-.287.026-.59.057-.95zM9.064 186.556h1c.002-31.247.002-61.591.002-91.707h-2c0 30.116 0 60.46-.002 91.707zm.002-91.707h1v-.057h-2v.057zm0-.057.493.87c.675-.382 1.191-.448 1.627-.406.478.046.923.224 1.504.466l.384-.923.385-.924c-.544-.226-1.258-.53-2.08-.61-.865-.083-1.791.082-2.806.657zm4.008.007-.384.923c.208.086.439.182.674.268l.34-.94.342-.94a14 14 0 0 1-.587-.235zm15.77 5.767-.343.939c11.3 4.124 22.603 8.248 33.942 12.293l.336-.942.336-.942c-11.331-4.042-22.628-8.164-33.929-12.288zm37.428 16.924-1-.008-.004.482 1 .009 1 .009.004-.483zm286.103 120.053-1-.001q-.012 13.351-.014 26.704h2q.002-13.351.014-26.702zm-.014 26.703h-1c.001 6.226-.009 12.362-.018 18.437l1 .002 1 .001c.009-6.075.019-12.213.018-18.44zm-.018 18.439-1-.002c-.02 13.164-.039 26.044.04 38.924l1-.006 1-.007c-.079-12.871-.06-25.742-.04-38.908zm-6.284 44.072h1l.008-23.202-1-.001h-1l-.008 23.203zm.008-23.203 1 .001c.017-50.976.035-101.952-.107-152.929l-1 .003-1 .003c.142 50.973.124 101.946.107 152.922zm18.996-166.566.411.911c3.405-1.536 9.013-4.014 14.639-6.275 5.654-2.273 11.236-4.29 14.626-4.947l-.19-.981-.19-.982c-3.606.698-9.358 2.789-14.992 5.054-5.663 2.277-11.299 4.767-14.716 6.308zm17.177-4.16-.462-.887c-7.531 3.917-14.981 7.789-23.055 10.47l.315.949.315.949c8.25-2.739 15.839-6.689 23.348-10.594zm-30.025 19.87-1 .008c.206 28.276.183 56.554.16 84.836l1 .001 1 .001c.023-28.281.046-56.567-.16-84.853zM9.028 298.294l1 .004c.032-9.451.062-18.267.06-24.117l-1 .001h-1c.002 5.845-.028 14.656-.06 24.109zm.06-24.112 1-.001c-.002-4.85-.028-82.886-.024-87.625l-1-.001-1-.001c-.004 4.741.022 82.779.024 87.628zm61.786 125.6-.384-.923c-12.327 5.138-24.606 10.369-36.88 15.598l.392.92.392.92c12.275-5.229 24.547-10.457 36.865-15.592zM13.21 424.245l-.44-.898c-1.115.547-1.728.79-2.506.308l-.527.85-.527.85c1.82 1.128 3.436.28 4.44-.211zm-4.132-31.009 1-.003c-.016-6.438-.006-12.878.005-19.32l-1-.001-1-.002c-.01 6.441-.02 12.885-.005 19.328zm.005-19.324 1 .001c.019-11.922.038-23.853-.107-35.783l-1 .012-1 .012c.145 11.914.126 23.831.107 35.756zm-.107-35.77 1-.006c-.052-9.047.003-25.203.053-39.838l-1-.004-1-.003c-.05 14.63-.105 30.798-.053 39.857zM150.484 34.241l.331.944.019-.007-.331-.944-.331-.943-.019.006zm51.873-18.181.331.944c4.775-1.673 9.563-3.32 14.354-4.969l-.326-.946-.325-.945c-4.79 1.648-9.583 3.297-14.364 4.972zm14.359-4.97.328.944h.002l-.328-.945-.327-.945h-.002zM15.898 89.392l-.344.939 5.304 1.945.344-.939.345-.939-5.305-1.945zm5.304 1.945-.344.94.02.007.345-.94.344-.938-.02-.008zm.02.008-.344.939c4.987 1.829 9.539 3.498 14.093 5.165l.343-.939.344-.939c-4.553-1.667-9.105-3.336-14.091-5.165zm45.66 16.728-.345.939.062.022.344-.939.344-.939-.062-.022zM197.122 292.11l-1 .001v.08l1-.001h1v-.081zm0 .08-1 .001c.003 11.129.007 22.287.008 33.483h2q-.002-16.792-.008-33.484zM298.32 154.382h1v-.004h-2v.004zm0-.004 1 .003c.027-8.393.054-16.8-.104-25.205l-1 .019-1 .019c.157 8.379.131 16.764.104 25.161zm79.362-43.433-.343.939.002.001.343-.939.342-.94-.002-.001zm72.399-8.447.342.94.003-.002-.342-.939-.341-.94-.003.001zm-151.769 100.51h1v-.031h-2v.031zM158.496 457.645l.366-.931-.013-.005-.366.93-.367.931.013.005zm-121.88-36.666-.39-.921-.008.004.389.921.39.921.009-.004zm-.009.004-.39-.921-.012.005.39.921.39.921.012-.005zm211.766 104.226h1v-.007h-2v.007zm0-.007 1 .001c.003-14.057.005-28.11.104-42.162l-1-.007-1-.007c-.099 14.06-.101 28.119-.104 42.175zm210.83-419.454-.333-.943-.022.008.333.943.333.943.021-.008zm-.022.008-.333-.943-.032.011.333.943.332.943.032-.011zM66.268 117.974l1 .01v-.001l-1-.011-1-.01v.001zm-37.425-17.409.344-.94-.006-.002-.344.939-.343.94.006.002zM13.21 424.245l.452.893v-.001l-.451-.892-.452-.892zm.001 0 .44.898c.237-.116.442-.216.641-.3l-.39-.921-.389-.921c-.259.109-.514.234-.742.346zm20.772-8.859.393.919.02-.008-.393-.92-.393-.92-.02.009zm32.006-84.371h1v-.002h-2v.002zm0-.002 1-.005c-.02-4.617-.041-9.239-.107-13.863l-1 .014-1 .015c.066 4.612.086 9.224.107 13.843zm316.257-198.189-.461-.887-.006.003.462.887.461.887.006-.003zM66.881 108.073l.344-.939-.062-.023-.344.939-.344.939.062.023zM36.585 420.992l.39.921.009-.004-.39-.921-.389-.921-.009.004zm121.911 36.653-.364.931.008.003.364-.931.363-.932-.008-.003zm.008.003-.367.93c3.322 1.31 6.642 2.62 9.957 3.939l.37-.929.369-.93q-4.979-1.978-9.962-3.941zm9.96 3.94-.373.928.044.017.372-.928.372-.928-.043-.018zm.043.017-.378.926.046.019.378-.926.378-.926-.046-.019zm.214.089-.395.918.004.002.395-.918.395-.919-.004-.002zm240.36-338.25.332.943c16.69-5.878 33.372-11.775 50.053-17.672l-.333-.942-.333-.943c-16.682 5.896-33.363 11.793-50.052 17.67zm50.052-17.671.334.942.016-.005-.334-.943-.334-.943-.016.006zm.07-.025.332.943.022-.008-.333-.943-.332-.943-.022.008zm-445.498-10.7-.342.94q7.565 2.75 15.126 5.512l.343-.939.343-.94q-7.56-2.762-15.129-5.512zm15.127 5.513-.345.938.005.002.345-.939.345-.938-.005-.002zm269.48 102.354h-1v.031h2v-.031zm0 .031h-1v.031h2v-.031zm151.779-100.452-.342-.94-.003.001.342.94.341.94.004-.001zm-.003.001-.342-.94-.003.002.341.94.342.939.003-.001zm-52.865 15.599.353-.936c-6.492-2.448-13.026-4.802-19.552-7.153l-.339.941-.339.941c6.528 2.351 13.048 4.7 19.524 7.142zm-19.538-7.148.335-.942-.001-.001zl-.336.942h.001zm-310.927-2.919-.344.939.061.023.344-.939.344-.939-.061-.023zm-.146-.053.344-.939-3.894-1.426-.344.939-.344.939 3.894 1.426zm-3.894-1.426-.344.939 3.915 1.434.344-.939.344-.939-3.915-1.434zM35.314 96.51l-.343.94q13.702 5.016 27.403 10.037l.344-.939.344-.939q-13.701-5.02-27.404-10.038zm27.404 10.038-.344.939 3.894 1.426.344-.939.344-.939-3.894-1.426zm3.915 1.434-.344.939.125.045.344-.939.344-.939-.125-.045zm102.088 353.712.386-.923-.085-.035-.386.922-.387.922.085.036zM36.585 420.992l-.387-.922-.008.003.387.922.387.922.009-.003zm422.661-315.259-.333-.943-.022.008.333.942.334.943.022-.008zm-160.934 97.12h-1v.031h2v-.031zm0 .031h-1v.031h2v-.031zm151.786-100.392-.345-.939-.003.001.344.939.345.939.003-.001zm-.004.001-.343-.939-.003.001.343.939.344.939.003-.001zm-299.61-68.252-.33-.944-.003.001.33.944.331.944.003-.001zm-.003.001-.331-.944C102.295 50.075 54.441 66.851 6.554 83.55l.33.944.329.945c47.889-16.7 95.744-33.477 143.599-50.253zm97.172 521.403.47-.883-233.038-124.27-.47.882-.471.883 233.038 124.27zM36.57 420.998l.394.919.008-.003-.395-.919-.394-.919-.007.003zm131.983 40.626-.383.924.083.034.383-.924.383-.924-.083-.034zm196.51-324.637-.336-.942c-1.771.631-3.507 1.325-5.223 2.01l.371.928.37.929c1.722-.687 3.424-1.367 5.153-1.983zm-5.188 1.996-.371-.928c-2.441.974-4.84 1.932-7.313 2.71l.3.954.3.954c2.557-.805 5.025-1.791 7.454-2.761zm90.223-36.491.341.94.003-.002-.341-.939-.342-.94-.003.001zM298.312 202.853h1v-.031h-2v.031zm191.945 210.239.374-.928c-3.195-1.288-27.127-9.578-49.986-17.223l-.317.948-.317.949c22.89 7.656 46.748 15.921 49.872 17.181zM36.57 420.998l-.38-.924-.007.002.38.925.382.925.006-.003zm-.006.003-.389-.921a9118 9118 0 0 0-17.265 7.297l.39.92.392.921c5.749-2.439 11.504-4.867 17.26-7.296zM388.17 129.388l-.516-.856-.002.001.516.857.517.856.002-.001zm-89.858 73.403h-1v.031h2v-.031zm151.792-100.302-.341-.94-.004.002.342.94.341.939.004-.001zM397.661 381.26l-.422.906c1.429.666 7.061 2.638 14.793 5.269 7.773 2.645 17.759 5.984 27.975 9.401l.317-.948.318-.948c-10.218-3.418-20.199-6.756-27.966-9.399-7.808-2.656-13.291-4.581-14.593-5.188zm42.663 14.628-.323.946.003.001.324-.946.324-.946-.004-.001zm-52.163-266.494.506.862.008-.004-.507-.862-.506-.863-.008.005zm9.5 251.866.422-.906c-.454-.212-.697-.376-.82-.489-.108-.098-.074-.109-.064-.042.006.042-.015.015.056-.153.073-.175.191-.381.374-.697l-.865-.502-.865-.501c-.164.282-.355.609-.488.926-.136.323-.26.745-.19 1.219.147.998 1.028 1.59 2.017 2.051zm-.897-2.789.865.502c.295-.509.699-1.201.983-2.079l-.951-.308-.952-.308c-.211.653-.512 1.178-.81 1.692zm92.509 40.861.454-.891-.064-.03-.027-.011-.033-.012-.061-.023-.186-.065-.672-.234a8361.743 8361.743 0 0 0-11.396-3.898c-7.397-2.525-17.358-5.921-27.691-9.443l-.322.946-.323.947a85915 85915 0 0 1 27.69 9.442c3.699 1.263 6.756 2.307 8.898 3.041a991 991 0 0 1 3.155 1.086l.17.06.036.013c.037.014-.021-.006-.081-.036zm-39.998-13.661.323-.946-.039-.014-.323.947-.323.946.039.014zm-.039-.013.318-.948-.013-.005-.318.949-.318.948.013.004zM298.312 202.729h-1v.031h2v-.031zm0 .031h-1v.031h2v-.031zm151.799-100.273-.342-.94-.003.001.341.94.342.94.003-.001zm-.004.001-.341-.94-.003.001.341.94.342.94.003-.001zm-.975 303.135-.322.946.091.031.322-.946.322-.947-.091-.031zm-150.82-202.957h-1v.032h2v-.032zm0 .032h-1v.031h2v-.031zm151.805-100.213-.341-.94-.004.001.342.94.342.94.003-.002zm-.003.001-.343-.939-.004.001.344.939.343.939.004-.001zM311.362 527.239l.489.872 48.13-27.025-.49-.872-.489-.872-48.13 27.025zm48.129-27.025.49.872 3.158-1.773-.489-.872-.49-.872-3.158 1.773zm89.641-94.591.323-.947-.106-.036-.322.947-.322.946.105.036zm-150.82-203.019h-1v.031h2v-.031zm0 .031h-1v.031h2v-.031zm151.812-100.153-.342-.94-.003.001.342.94.341.94.004-.001zm-.003.001-.342-.94-.003.002.341.94.342.939.003-.001zm-51.403 285.912-.495.869a1 1 0 0 0 .089.045l.034.015.042.016.08.03.247.088c.209.074.512.179.9.313.777.269 1.904.656 3.325 1.144 2.842.974 6.865 2.35 11.634 3.978 9.54 3.258 22.07 7.529 34.119 11.636l.322-.946.323-.947a76149 76149 0 0 1-34.117-11.635c-4.77-1.629-8.792-3.004-11.633-3.978a1450 1450 0 0 1-4.209-1.452l-.229-.081-.049-.018c-.053-.021.03.008.111.054zm50.297 17.188-.325.945.011.004.326-.945.326-.946-.012-.004zM298.312 202.541h-1v.031h2v-.031zm0 .031h-1v.032h2v-.032zM450.131 102.48l-.342-.94-.003.001.341.94.342.94.003-.001zm-.004.001-.341-.94-.004.001.342.94.342.94.003-.001zm-151.815 99.997h-1v.032h2v-.032zm0 .032h-1v.031h2v-.031zm-.629 121.926-.999-.053c-.571 10.649-3.653 16.857-5.842 20.293l.844.538.843.537c2.352-3.692 5.56-10.23 6.153-21.261zm152.454-221.959-.341-.94-.004.002.342.94.341.939.004-.001zm-.003.002-.344-.94-.003.002.344.939.343.939.003-.001zM150.503 34.234l.331.944.047-.017-.331-.943-.33-.944-.047.017zm179.593-7.8-.329.944.032.01.329-.943.329-.945-.032-.01zM127.157 186.547h-1q.002 22.895.002 45.79h2q0-22.895-.002-45.79zm.002 45.79h-1v.361h2v-.361zm40.882 225.886-.651.759.002.002.65-.759.651-.759-.002-.002zm.001.002-.656.754a540 540 0 0 1 3.703 3.242l.663-.748.663-.748c-1.236-1.097-2.48-2.179-3.716-3.255zm-93.14-53.546-.397-.918c-12.711 5.51-25.487 10.9-38.268 16.293l.389.921.388.921c12.78-5.391 25.565-10.785 38.286-16.3zm-38.276 16.296-.388-.922-.009.004.387.922.388.922.009-.004zm422.638-315.249-.333-.942-.018.006.333.943.334.942.017-.006zm-71.092 23.661-.506-.862-.002.001.506.862.506.863.003-.001zm-.011.007-.511-.86-.001.001.51.86.511.86.001-.001zm105.867 283.011.997.074q.023-.301.051-.61l-.996-.09-.996-.09q-.029.319-.053.642zM311.362 527.239l-.49-.872q-10.239 5.751-20.476 11.505l.49.872.49.872q10.237-5.755 20.475-11.505zm-20.476 11.505-.49-.872-.263.148.49.872.49.871.263-.147zm159.251-436.267.339.941.027-.01-.339-.94-.339-.941-.027.009zm.027-.009.339.94c9.941-3.58 19.883-7.162 29.815-10.765l-.341-.94-.341-.94c-9.929 3.602-19.869 7.183-29.811 10.764zm-26.653-35.324.328-.944-.749-.26-.328.944-.329.944.749.26zM297.683 324.436l.999.054c.051-.961.102-1.744.151-2.498l-.998-.065-.998-.064c-.049.754-.1 1.547-.153 2.52zm.152-2.509.998.065c.204-3.148.369-5.723.408-18.007l-1-.003-1-.003c-.039 12.26-.204 14.791-.404 17.884zm.477-119.449h1v-.031h-2v.031zM66.267 117.974l-1-.002c-.011 7.876-.06 26.155-.121 48.66l1 .003 1 .003c.06-22.505.11-40.786.121-48.663zm-.121 48.661-1-.003c-.149 55-.365 135.252-.265 150.534l1-.007 1-.006c-.1-15.27.116-95.506.265-150.515zm-.158 164.38h-1v.001h2v-.001zm0 .001-1 .004c.036 8.166.072 16.351.36 24.543l.999-.036 1-.035c-.287-8.155-.323-16.309-.36-24.481zm-32.006 84.37-.394-.92-.018.008.394.919.393.92.019-.008zm-.018.007-.392-.92a9735 9735 0 0 1-20.06 8.528l.39.921.39.92c6.693-2.833 13.379-5.681 20.064-8.529zM330.138 26.448l.33-.944-.011-.004-.329.945-.33.944.011.003zM202.357 16.06l-.33-.944q-25.858 9.06-51.714 18.125l.331.944.331.944q25.855-9.065 51.713-18.125zm-51.713 18.125-.33-.944-.094.033.33.944.331.943.094-.032zm237.514 95.211.501.865.001-.001zl-.501-.866-.001.001zm.014-.009.509.861.007-.004-.509-.861-.508-.861-.007.004zM254.154 553.851l-1-.028q-.005.173-.013.36l.999.04 1 .04q.008-.188.013-.383zm1.736 4.371.468.884q.895-.473 1.823-.955l-.462-.887-.462-.887c-.617.321-1.232.642-1.835.961zm1.829-.958.515.857h.001l-.515-.858-.514-.857h-.001zm40.593-354.849h-1v.032h2v-.032zM404.66 60.585l-.329.945 18.102 6.298.329-.944.328-.945-18.101-6.298zm54.604 45.141.333.943.018-.006-.333-.943-.334-.943-.017.007zm.018-.006.333.943.018-.006-.334-.943-.333-.943-.018.006zm34.984 188.784h-1c.012 30.76.022 56.788.021 70.642h2c.001-13.855-.009-39.883-.021-70.643zm.021 70.642h-1v.496h2v-.496zm0 .496h-1q0 21.582-.004 43.165h2q.004-21.582.004-43.165zm-.182 45.87-.996-.093-.025.271.996.089.996.09.024-.264zM330.138 26.448l-.329.944.01.004.33-.944.329-.944-.01-.004zm58.048 102.931-.508-.861-.007.004.508.861.509.861.006-.004zM254.154 553.851l.999.029q.004-.11.005-.224l-1-.011-1-.012-.004.19zm239.951-142.339.995.094.024-.248-.996-.094-.995-.093-.024.247zm.161-117.008h1v-.099h-2v.099zm0-.099h1c-.026-69.871-.062-164.099-.006-195.556l-1-.002-1-.001c-.056 31.46-.02 125.69.006 195.56zm-34.949-188.697-.333-.943-.018.006.333.943.334.943.017-.007zM247.162 8.734l.324.946c2.223-.763 4.328-.715 5.89-.47.78.123 1.416.293 1.852.431a9 9 0 0 1 .615.218l.025.011.004.002h-.001V9.87l.402-.916.402-.915h-.001l-.002-.001-.005-.003-.015-.006a6 6 0 0 0-.216-.087 11 11 0 0 0-.605-.21 15 15 0 0 0-2.144-.498c-1.784-.28-4.235-.344-6.849.553zm9.111.221-.329.945 148.387 51.63.329-.945.329-.944L256.601 8.01zm42.039 193.397h-1v.032h2v-.032zm0 .032h-1v.031h2v-.031zm58.992-166.473.329-.944q-13.571-4.731-27.145-9.456l-.329.945-.328.944q13.573 4.724 27.144 9.455zm-27.145-9.455.329-.945-.01-.003-.329.944-.329.944.01.004zm-76 527.076-1 .001v.058l1 .007 1 .007v-.075zm0 .066-1-.009-.001.047 1 .009 1 .009.001-.047zm205.158-447.89.333.942.018-.006-.333-.943-.334-.942-.017.006zm.018-.007.333.943q16.002-5.658 32.007-11.308l-.333-.943-.333-.943q-16.005 5.65-32.008 11.309zM197.147 350.955l1-.003-.005-1.804-1 .003-1 .004.005 1.802zM298.3 163.97h-1c-.001 12.834.006 25.601.012 38.319h1l1-.001c-.006-12.718-.013-25.485-.012-38.317zm.012 38.319h-1v.031h2v-.031zm0 .031h-1v.032h2v-.032zm-6.626 142.894-.844-.538c-2.897 4.549-4.355 6.416-5.38 7.731l.789.615.788.615c1.057-1.355 2.553-3.275 5.49-7.886zm-5.435 7.808-.789-.615c-.273.35-.524.673-.765.997l.803.596.803.596c.224-.302.46-.605.736-.959zm108.298-227.327-.456-.89c-.786.403-3.653 2.089-6.405 3.707l.507.862.507.862c2.798-1.645 5.585-3.283 6.303-3.651zm-6.354 3.679-.505-.863-.007.004.504.863.505.864.007-.005zm-.008.004-.524-.851-.001.001.524.851.524.852.001-.001zm-.029.018-.506-.863-.003.002.506.862.506.863.002-.001zm-.003.001-.507-.862c-2.648 1.558-5.184 3.048-5.864 3.402l.461.887.462.887c.74-.385 3.348-1.919 5.955-3.451zM197.524 369.878l1-.036c-.354-9.727-.365-13.878-.377-18.89l-1 .003-1 .002c.012 5.028.023 9.202.378 18.958z" mask="url(#a)"/></svg>